<svg id="svg" version="1.1" xmlns="http://www.w3.org/2000/svg" xmlns:xlink="http://www.w3.org/1999/xlink" width="400" height="392.9824561403509" viewBox="0, 0, 400,392.9824561403509"><g id="svgg"><path id="path0" d="M138.446 130.835 C 130.816 131.799,114.447 137.410,113.152 139.506 C 112.906 139.904,110.050 153.827,109.376 157.915 C 109.162 159.213,108.446 163.461,107.785 167.355 C 104.939 184.118,103.257 198.291,101.411 221.042 C 100.481 232.509,100.710 263.346,101.805 274.140 C 105.683 312.367,114.693 334.099,137.004 359.043 C 144.076 366.949,153.955 371.375,175.221 376.167 C 185.507 378.485,202.805 379.115,215.143 377.621 C 222.165 376.771,223.963 376.430,232.252 374.379 C 246.552 370.840,261.070 363.881,273.163 354.769 C 280.443 349.283,290.374 338.912,295.192 331.762 C 304.456 318.017,309.048 304.289,310.189 286.922 C 310.579 280.992,308.851 271.880,305.192 260.570 C 301.041 247.742,302.342 235.894,309.057 225.373 C 335.657 183.697,304.243 130.784,252.901 130.784 C 239.457 130.784,233.391 132.213,221.239 138.239 C 204.794 146.395,195.230 146.352,178.368 138.050 C 165.796 131.861,151.202 129.223,138.446 130.835 M350.514 141.613 C 346.853 142.269,346.474 142.733,347.317 145.529 C 347.700 146.799,348.743 151.630,349.651 156.342 C 350.630 161.425,351.622 174.419,351.622 182.159 C 351.622 191.306,352.162 200.614,352.998 205.900 C 353.306 207.847,353.749 210.767,353.982 212.389 C 354.566 216.450,356.138 224.116,356.452 224.430 C 357.115 225.093,363.891 221.170,368.170 217.645 C 400.302 191.175,387.263 135.025,350.514 141.613 M148.402 176.420 C 153.985 178.086,158.602 181.854,160.910 186.627 L 162.242 189.381 162.242 196.853 C 162.242 205.285,161.946 206.482,158.815 210.728 C 157.385 212.667,152.960 216.320,152.035 216.325 C 151.808 216.326,151.149 216.574,150.571 216.876 C 142.521 221.076,129.960 216.282,125.755 207.404 L 124.484 204.720 124.484 197.050 L 124.484 189.381 125.751 186.705 C 129.566 178.650,140.000 173.912,148.402 176.420 M262.269 176.546 C 267.287 177.909,271.730 181.552,274.140 186.277 L 275.516 188.978 275.516 197.045 L 275.516 205.113 274.336 207.473 C 269.949 216.247,257.367 221.016,249.470 216.897 C 248.869 216.584,248.200 216.326,247.983 216.325 C 246.095 216.313,241.055 211.128,239.188 207.276 L 237.758 204.326 237.758 197.050 L 237.758 189.774 239.011 187.130 C 240.411 184.174,240.600 183.905,242.998 181.455 C 247.705 176.647,255.412 174.683,262.269 176.546 M140.346 182.901 C 134.860 185.800,136.594 193.331,142.855 193.793 C 146.667 194.075,149.462 191.641,149.457 188.044 C 149.450 183.555,144.451 180.733,140.346 182.901 M253.854 182.898 C 249.549 185.029,249.596 191.548,253.930 193.358 C 259.916 195.859,265.563 189.625,261.791 184.680 C 259.869 182.159,256.758 181.461,253.854 182.898 M182.448 247.253 C 184.098 248.011,185.978 248.865,186.627 249.152 C 193.967 252.391,194.736 253.042,195.002 256.243 C 195.416 261.242,191.061 263.583,185.841 261.168 C 184.975 260.768,183.117 259.915,181.711 259.273 C 172.221 254.940,172.075 254.817,172.075 251.125 C 172.075 245.696,175.929 244.258,182.448 247.253 M224.255 245.833 C 226.803 246.541,228.240 248.646,228.042 251.384 C 227.790 254.864,227.485 255.108,217.896 259.462 C 216.706 260.002,215.020 260.779,214.150 261.188 C 208.969 263.621,204.583 261.252,204.998 256.243 C 205.214 253.639,206.163 252.443,209.046 251.141 C 212.768 249.459,215.737 248.104,217.896 247.101 C 221.589 245.385,222.202 245.263,224.255 245.833 M259.533 296.585 C 265.931 300.223,261.373 317.614,250.726 330.187 C 240.433 342.341,227.828 349.174,209.636 352.458 C 206.853 352.960,193.127 352.977,190.560 352.481 C 183.409 351.099,181.549 350.662,178.564 349.660 C 173.721 348.034,169.106 345.960,165.585 343.826 C 164.828 343.367,163.706 342.708,163.092 342.362 C 154.553 337.551,144.700 325.861,140.587 315.661 C 136.447 305.394,136.260 299.886,139.955 297.068 L 141.654 295.772 199.879 295.772 C 258.015 295.772,258.105 295.773,259.533 296.585 " stroke="none" fill="#f3dcb4" fill-rule="evenodd"></path><path id="path1" d="M196.808 6.477 C 177.896 16.007,142.282 62.542,126.966 97.738 C 126.307 99.253,125.455 101.200,125.072 102.065 C 120.939 111.403,117.045 122.881,114.462 133.333 C 113.794 136.037,113.051 138.604,112.812 139.036 C 112.403 139.775,112.422 139.785,113.120 139.200 C 114.004 138.460,119.737 135.542,121.141 135.117 C 121.681 134.953,122.655 134.586,123.304 134.302 C 138.870 127.483,160.931 129.036,179.548 138.263 C 195.290 146.064,205.379 145.974,221.239 137.888 C 238.466 129.106,261.871 127.612,276.756 134.346 C 277.437 134.654,278.128 134.907,278.291 134.907 C 278.651 134.907,283.543 137.131,284.366 137.669 C 284.690 137.881,285.360 138.230,285.855 138.443 C 286.349 138.656,288.207 139.791,289.984 140.965 C 318.822 160.015,327.390 196.472,309.701 224.853 C 305.089 232.253,303.146 238.829,303.158 247.001 C 303.166 252.564,303.307 253.280,306.379 263.324 C 312.108 282.059,311.705 295.737,304.892 313.864 C 302.650 319.829,297.463 329.544,294.498 333.333 C 294.328 333.550,293.092 335.143,291.751 336.873 C 277.892 354.757,256.249 368.564,232.448 374.707 C 228.874 375.630,226.656 376.095,219.666 377.386 C 209.868 379.196,190.132 379.196,180.334 377.386 C 170.211 375.516,166.227 374.539,159.489 372.273 C 154.235 370.507,150.281 368.886,144.936 366.309 L 142.970 365.360 144.376 366.653 C 155.730 377.085,164.121 383.695,172.374 388.708 C 173.724 389.528,175.230 390.548,175.722 390.975 C 177.226 392.281,183.060 392.686,200.197 392.675 C 214.089 392.665,218.582 392.459,224.779 391.544 C 225.428 391.449,228.083 391.091,230.678 390.749 C 233.274 390.408,235.752 389.971,236.185 389.779 C 236.618 389.587,238.725 389.145,240.867 388.796 C 243.010 388.448,245.046 388.020,245.391 387.846 C 245.735 387.672,247.655 387.205,249.656 386.807 C 251.657 386.409,253.294 385.969,253.294 385.829 C 253.294 385.688,254.527 385.341,256.033 385.057 C 257.540 384.772,258.696 384.417,258.603 384.267 C 258.510 384.116,259.358 383.786,260.488 383.534 C 261.617 383.281,263.005 382.834,263.571 382.540 C 264.138 382.246,265.508 381.773,266.617 381.489 C 267.726 381.205,268.633 380.857,268.633 380.716 C 268.633 380.574,269.385 380.237,270.305 379.966 C 271.224 379.695,272.507 379.240,273.156 378.955 C 273.805 378.670,275.774 377.802,277.532 377.026 C 279.290 376.250,280.927 375.615,281.170 375.615 C 281.414 375.615,281.613 375.441,281.613 375.229 C 281.613 375.017,282.099 374.722,282.694 374.574 C 283.289 374.426,284.307 374.009,284.956 373.649 C 285.605 373.288,287.463 372.299,289.086 371.452 C 290.708 370.605,292.124 369.823,292.232 369.715 C 292.340 369.607,292.851 369.280,293.368 368.990 C 293.884 368.699,294.914 368.119,295.658 367.702 C 296.401 367.285,297.483 366.630,298.062 366.248 C 298.641 365.866,299.469 365.335,299.902 365.069 C 300.334 364.802,301.256 364.221,301.950 363.777 C 302.643 363.334,303.303 362.980,303.416 362.991 C 303.528 363.002,304.033 362.616,304.537 362.135 C 305.041 361.653,305.863 360.993,306.362 360.669 C 306.862 360.344,307.984 359.548,308.856 358.899 C 309.728 358.250,310.718 357.542,311.055 357.325 C 311.392 357.109,311.879 356.755,312.138 356.539 C 312.397 356.323,313.464 355.438,314.511 354.572 C 318.438 351.326,323.238 346.869,327.237 342.758 C 332.907 336.929,334.710 335.024,334.710 334.859 C 334.710 334.782,335.551 333.640,336.578 332.321 C 337.606 331.003,338.755 329.452,339.133 328.876 C 339.510 328.299,339.820 328.001,339.821 328.214 C 339.822 328.428,340.192 327.913,340.644 327.071 C 341.095 326.228,341.715 325.289,342.020 324.983 C 342.326 324.678,342.576 324.276,342.576 324.090 C 342.576 323.905,342.814 323.515,343.105 323.224 C 343.628 322.701,344.174 321.813,346.954 316.951 C 349.354 312.757,353.589 304.128,353.589 303.434 C 353.589 303.303,354.019 302.278,354.544 301.156 C 355.070 300.033,355.620 298.453,355.767 297.644 C 355.915 296.834,356.167 296.253,356.328 296.353 C 356.489 296.452,356.908 295.345,357.261 293.891 C 359.057 286.482,359.571 284.447,359.963 283.196 C 360.349 281.961,361.085 277.187,361.784 271.386 C 362.354 266.653,362.048 249.904,361.331 246.608 C 361.213 246.067,360.901 243.981,360.637 241.973 C 360.373 239.965,360.007 238.229,359.823 238.115 C 358.722 237.434,359.585 236.376,361.750 235.750 C 362.994 235.391,364.100 234.982,364.208 234.841 C 364.317 234.700,365.614 233.972,367.092 233.223 C 368.571 232.474,369.964 231.639,370.189 231.368 C 370.414 231.097,370.797 230.873,371.041 230.871 C 371.454 230.868,372.630 230.017,376.598 226.852 C 380.657 223.614,388.958 214.216,390.235 211.414 C 390.483 210.869,390.808 210.423,390.957 210.423 C 391.106 210.423,391.561 209.671,391.969 208.751 C 392.376 207.832,392.920 206.860,393.176 206.592 C 393.433 206.324,393.760 205.572,393.903 204.920 C 394.046 204.269,394.307 203.736,394.482 203.736 C 394.658 203.736,395.120 202.675,395.509 201.377 C 395.898 200.079,396.337 199.017,396.486 199.017 C 396.634 199.017,396.991 197.955,397.279 196.657 C 397.567 195.359,397.907 194.297,398.036 194.297 C 398.164 194.297,398.296 193.899,398.328 193.412 C 398.360 192.925,398.692 191.111,399.066 189.381 C 400.043 184.864,400.047 168.288,399.073 164.012 C 398.704 162.389,398.383 160.796,398.360 160.472 C 398.338 160.147,398.190 159.705,398.031 159.489 C 397.873 159.272,397.525 158.166,397.259 157.030 C 396.993 155.895,396.616 154.966,396.421 154.966 C 396.226 154.966,396.067 154.640,396.067 154.242 C 396.067 153.392,393.872 148.803,392.960 147.746 C 392.614 147.345,392.408 146.991,392.502 146.960 C 392.769 146.871,391.231 144.582,390.668 144.228 C 390.393 144.055,390.167 143.725,390.167 143.495 C 390.167 142.313,381.252 133.727,380.025 133.727 C 379.821 133.727,379.232 133.405,378.716 133.012 C 378.200 132.619,377.158 132.072,376.401 131.797 C 375.644 131.522,374.582 131.068,374.041 130.787 C 373.500 130.507,372.439 130.148,371.681 129.990 C 370.924 129.832,370.128 129.562,369.912 129.390 C 368.478 128.249,353.790 127.862,352.716 128.936 C 352.494 129.158,352.051 129.238,351.731 129.115 C 351.411 128.993,351.032 129.084,350.887 129.317 C 350.743 129.551,350.148 129.806,349.565 129.884 C 348.982 129.962,348.381 130.151,348.229 130.303 C 348.076 130.455,347.509 130.580,346.968 130.580 C 346.427 130.580,346.106 130.701,346.254 130.849 C 346.401 130.997,345.968 131.351,345.291 131.636 C 343.820 132.254,343.228 132.296,343.559 131.760 C 343.693 131.544,343.615 131.367,343.386 131.367 C 343.157 131.367,342.970 131.097,342.970 130.768 C 342.970 130.109,340.322 123.144,339.833 122.517 C 339.664 122.301,339.398 121.681,339.241 121.141 C 338.666 119.152,331.474 104.485,330.756 103.835 C 330.637 103.727,330.230 102.974,329.853 102.163 C 329.475 101.352,329.042 100.687,328.890 100.685 C 328.738 100.683,328.266 99.891,327.842 98.925 C 327.417 97.959,326.842 97.081,326.563 96.974 C 326.285 96.867,326.057 96.521,326.057 96.206 C 326.057 95.890,325.836 95.396,325.565 95.109 C 325.295 94.822,324.368 93.526,323.506 92.229 C 322.643 90.933,321.758 89.742,321.539 89.583 C 321.320 89.424,321.286 89.292,321.464 89.288 C 321.641 89.285,321.553 89.039,321.267 88.742 C 319.708 87.122,313.294 78.425,313.405 78.083 C 313.478 77.861,313.417 77.799,313.270 77.946 C 313.124 78.092,312.208 77.296,311.235 76.176 C 307.785 72.206,304.201 68.256,302.163 66.180 C 301.028 65.023,300.098 63.877,300.098 63.634 C 300.098 63.391,299.989 63.302,299.855 63.436 C 299.721 63.570,299.383 63.467,299.103 63.206 C 298.823 62.946,297.275 61.495,295.662 59.980 C 291.823 56.376,290.747 55.448,288.232 53.570 C 287.079 52.708,285.782 51.668,285.349 51.257 C 283.462 49.465,272.522 41.968,269.813 40.611 C 269.056 40.232,268.348 39.818,268.240 39.691 C 267.683 39.038,259.609 34.668,258.899 34.635 C 258.628 34.622,258.407 34.435,258.407 34.218 C 258.407 34.002,258.231 33.825,258.015 33.825 C 257.799 33.825,256.499 33.294,255.125 32.645 C 253.752 31.996,252.424 31.465,252.174 31.465 C 251.925 31.465,251.721 31.316,251.721 31.134 C 251.721 30.952,250.969 30.580,250.049 30.307 C 249.130 30.034,247.476 29.387,246.373 28.868 C 245.271 28.350,244.155 27.925,243.893 27.925 C 243.632 27.925,242.654 27.577,241.719 27.151 L 240.021 26.378 239.768 18.400 C 239.465 8.852,239.305 6.332,238.983 6.010 C 238.761 5.788,236.844 6.590,236.382 7.098 C 236.205 7.292,234.440 8.354,231.072 10.292 C 230.423 10.665,229.317 11.248,228.614 11.587 C 227.911 11.926,227.335 12.345,227.335 12.518 C 227.335 12.826,224.535 14.313,224.233 14.166 C 224.149 14.125,223.972 14.245,223.839 14.433 C 223.637 14.719,220.321 16.831,217.306 18.593 C 216.873 18.845,215.900 19.420,215.143 19.870 C 213.914 20.600,213.342 20.664,209.833 20.472 L 205.900 20.256 205.405 18.289 C 205.132 17.207,204.873 15.924,204.827 15.438 C 204.782 14.951,204.642 14.553,204.516 14.553 C 204.390 14.553,204.049 13.181,203.759 11.504 C 203.468 9.828,203.089 8.273,202.916 8.050 C 202.743 7.826,202.652 7.299,202.713 6.878 C 203.025 4.755,200.557 4.588,196.808 6.477 M108.909 141.643 C 107.052 142.963,105.957 143.918,106.989 143.317 C 108.162 142.634,110.914 140.699,110.914 140.557 C 110.914 140.269,110.609 140.435,108.909 141.643 M39.229 141.161 C 37.245 141.576,36.861 142.027,38.791 141.674 C 40.787 141.310,48.194 141.317,49.951 141.685 C 51.116 141.928,51.207 141.901,50.541 141.508 C 49.613 140.960,41.393 140.708,39.229 141.161 M362.765 141.802 C 391.257 149.207,395.665 192.888,370.281 216.281 C 365.912 220.308,357.127 225.601,356.329 224.688 C 355.659 223.921,354.080 215.830,353.009 207.670 C 352.682 205.182,352.226 201.908,351.995 200.393 C 351.764 198.879,351.415 190.826,351.220 182.498 C 351.025 174.169,350.685 166.028,350.464 164.405 C 349.333 156.098,347.055 144.368,346.354 143.233 C 346.176 142.945,346.484 142.612,347.174 142.348 C 351.970 140.512,357.110 140.332,362.765 141.802 M33.137 142.966 C 32.434 143.272,31.858 143.610,31.858 143.717 C 31.858 143.906,34.640 142.850,34.972 142.535 C 35.316 142.209,34.363 142.433,33.137 142.966 M53.187 143.461 C 53.124 144.289,53.195 144.405,53.489 143.953 C 53.952 143.240,54.000 142.380,53.576 142.380 C 53.407 142.380,53.232 142.866,53.187 143.461 M29.794 144.571 C 28.323 145.369,28.413 145.701,29.892 144.936 C 30.541 144.600,31.072 144.242,31.072 144.139 C 31.072 143.886,31.030 143.901,29.794 144.571 M26.145 147.326 L 24.189 149.126 26.254 147.461 C 28.106 145.968,28.552 145.526,28.209 145.526 C 28.149 145.526,27.220 146.336,26.145 147.326 M99.102 149.754 L 96.952 152.016 99.213 149.866 C 101.314 147.869,101.655 147.493,101.363 147.493 C 101.302 147.493,100.284 148.510,99.102 149.754 M51.580 150.499 C 51.333 151.730,51.204 152.810,51.293 152.899 C 51.382 152.988,51.663 152.060,51.917 150.836 C 52.172 149.612,52.301 148.532,52.205 148.435 C 52.108 148.339,51.827 149.268,51.580 150.499 M22.591 150.737 L 21.436 152.016 22.714 150.861 C 23.417 150.225,23.992 149.650,23.992 149.582 C 23.992 149.278,23.668 149.546,22.591 150.737 M19.766 154.277 C 19.210 154.980,18.426 156.539,18.630 156.539 C 18.724 156.539,19.167 155.919,19.614 155.162 C 20.425 153.786,20.501 153.350,19.766 154.277 M92.429 157.719 C 91.967 158.368,91.677 158.899,91.785 158.899 C 91.893 158.899,92.360 158.368,92.822 157.719 C 93.284 157.070,93.574 156.539,93.466 156.539 C 93.357 156.539,92.891 157.070,92.429 157.719 M49.767 160.682 C 49.614 162.115,49.577 163.376,49.685 163.484 C 49.793 163.592,50.007 162.508,50.161 161.075 C 50.314 159.642,50.351 158.381,50.243 158.273 C 50.135 158.165,49.921 159.249,49.767 160.682 M15.379 163.461 C 15.152 164.280,15.038 165.022,15.125 165.108 C 15.211 165.195,15.467 164.595,15.693 163.776 C 15.919 162.956,16.034 162.215,15.947 162.129 C 15.861 162.042,15.605 162.642,15.379 163.461 M88.692 163.618 C 88.357 164.267,88.171 164.798,88.279 164.798 C 88.387 164.798,88.750 164.267,89.086 163.618 C 89.421 162.970,89.607 162.439,89.499 162.439 C 89.391 162.439,89.028 162.970,88.692 163.618 M86.593 167.765 C 85.934 169.211,86.060 169.520,86.772 168.205 C 87.105 167.591,87.304 167.015,87.214 166.925 C 87.124 166.835,86.844 167.213,86.593 167.765 M13.560 170.834 C 13.411 172.027,13.368 173.237,13.464 173.522 C 13.560 173.808,13.767 172.916,13.923 171.542 C 14.080 170.167,14.123 168.957,14.019 168.854 C 13.916 168.750,13.709 169.641,13.560 170.834 M48.870 171.681 C 48.874 172.547,48.955 172.854,49.049 172.365 C 49.143 171.876,49.140 171.168,49.041 170.792 C 48.943 170.416,48.866 170.816,48.870 171.681 M13.125 178.564 C 13.125 180.836,13.190 181.765,13.269 180.629 C 13.349 179.494,13.349 177.635,13.269 176.500 C 13.190 175.364,13.125 176.293,13.125 178.564 M82.989 177.778 C 82.744 178.687,82.621 179.507,82.715 179.602 C 82.809 179.696,83.077 179.020,83.311 178.100 C 83.545 177.179,83.668 176.359,83.585 176.276 C 83.502 176.193,83.234 176.869,82.989 177.778 M13.441 184.857 C 13.428 185.398,13.564 186.549,13.743 187.414 C 13.952 188.423,14.077 188.635,14.091 188.004 C 14.104 187.463,13.968 186.313,13.789 185.447 C 13.580 184.438,13.455 184.227,13.441 184.857 M81.207 189.032 C 81.051 191.328,81.078 195.001,81.268 197.193 C 81.582 200.831,81.613 200.466,81.613 193.019 C 81.613 188.530,81.585 184.857,81.552 184.857 C 81.519 184.857,81.364 186.736,81.207 189.032 M48.499 192.134 C 48.502 193.432,48.575 193.915,48.663 193.208 C 48.750 192.501,48.748 191.439,48.659 190.848 C 48.569 190.257,48.497 190.836,48.499 192.134 M15.008 192.920 C 15.007 193.137,15.244 193.933,15.536 194.690 C 15.827 195.447,16.071 195.801,16.078 195.477 C 16.085 195.152,15.847 194.356,15.550 193.707 C 15.253 193.058,15.009 192.704,15.008 192.920 M237.707 197.050 C 237.707 199.322,237.772 200.251,237.851 199.115 C 237.931 197.979,237.931 196.121,237.851 194.985 C 237.772 193.850,237.707 194.779,237.707 197.050 M48.054 196.657 C 48.011 197.847,47.892 199.528,47.789 200.393 L 47.603 201.967 48.006 200.393 C 48.227 199.528,48.347 197.847,48.271 196.657 L 48.133 194.494 48.054 196.657 M16.945 198.427 C 16.945 198.643,17.285 199.440,17.699 200.197 C 18.114 200.954,18.453 201.396,18.453 201.180 C 18.453 200.964,18.114 200.167,17.699 199.410 C 17.285 198.653,16.945 198.210,16.945 198.427 M19.076 202.950 C 19.411 203.599,19.774 204.130,19.883 204.130 C 19.991 204.130,19.805 203.599,19.469 202.950 C 19.133 202.301,18.770 201.770,18.662 201.770 C 18.554 201.770,18.740 202.301,19.076 202.950 M20.402 205.113 C 20.614 205.546,21.076 206.254,21.428 206.686 L 22.069 207.473 21.683 206.686 C 21.470 206.254,21.008 205.546,20.656 205.113 L 20.016 204.326 20.402 205.113 M82.836 207.276 C 82.970 208.033,83.239 208.918,83.433 209.243 C 83.852 209.941,83.449 207.903,82.929 206.686 C 82.702 206.156,82.671 206.348,82.836 207.276 M46.214 211.603 C 46.062 212.712,46.020 213.703,46.122 213.804 C 46.223 213.906,46.427 213.077,46.575 211.963 C 46.723 210.849,46.764 209.859,46.668 209.762 C 46.571 209.665,46.367 210.493,46.214 211.603 M28.932 215.381 C 30.712 217.135,32.762 218.968,33.488 219.454 C 34.367 220.043,34.217 219.836,33.038 218.834 C 32.065 218.006,30.015 216.174,28.482 214.761 C 26.134 212.597,26.205 212.694,28.932 215.381 M84.788 213.569 C 84.933 214.110,85.215 214.818,85.415 215.143 C 85.669 215.553,85.700 215.433,85.517 214.749 C 85.372 214.208,85.090 213.500,84.889 213.176 C 84.636 212.766,84.605 212.886,84.788 213.569 M86.164 216.912 C 86.164 217.129,86.417 217.748,86.726 218.289 C 87.035 218.830,87.288 219.095,87.288 218.879 C 87.288 218.663,87.035 218.043,86.726 217.502 C 86.417 216.962,86.164 216.696,86.164 216.912 M44.444 221.239 C 44.190 222.463,44.061 223.543,44.157 223.639 C 44.253 223.736,44.534 222.807,44.782 221.576 C 45.029 220.345,45.158 219.265,45.069 219.176 C 44.980 219.086,44.699 220.015,44.444 221.239 M42.516 224.614 C 43.193 225.043,44.051 225.080,44.051 224.680 C 44.051 224.518,43.581 224.358,43.007 224.325 C 42.261 224.282,42.121 224.364,42.516 224.614 M93.623 231.091 C 93.630 231.297,93.903 231.908,94.229 232.448 L 94.821 233.432 94.564 232.448 C 94.296 231.422,93.597 230.416,93.623 231.091 M95.437 236.185 C 95.954 238.480,96.371 239.431,96.127 237.758 C 96.000 236.893,95.733 235.919,95.534 235.595 C 95.291 235.200,95.259 235.395,95.437 236.185 M95.821 255.703 C 95.493 257.342,95.811 257.660,96.165 256.047 C 96.315 255.367,96.355 254.729,96.255 254.629 C 96.154 254.529,95.959 255.012,95.821 255.703 M94.047 261.592 C 93.806 262.284,93.621 263.046,93.636 263.284 C 93.652 263.522,93.918 263.024,94.228 262.178 C 94.538 261.331,94.723 260.570,94.639 260.486 C 94.555 260.402,94.289 260.900,94.047 261.592 M92.260 267.678 C 92.115 268.254,92.073 268.802,92.166 268.895 C 92.258 268.987,92.453 268.592,92.597 268.015 C 92.742 267.439,92.784 266.891,92.692 266.799 C 92.599 266.706,92.405 267.102,92.260 267.678 M90.501 274.918 C 90.263 276.026,90.085 277.321,90.106 277.797 C 90.126 278.273,90.387 277.434,90.685 275.932 C 90.983 274.429,91.161 273.134,91.080 273.053 C 90.999 272.972,90.738 273.811,90.501 274.918 M89.783 290.265 C 89.783 291.239,89.859 291.637,89.953 291.150 C 90.047 290.664,90.047 289.867,89.953 289.381 C 89.859 288.894,89.783 289.292,89.783 290.265 M90.323 295.548 C 90.442 297.047,90.693 298.640,90.880 299.088 C 91.247 299.967,91.089 298.370,90.454 294.789 C 90.145 293.045,90.130 293.131,90.323 295.548 M171.356 296.067 C 186.968 296.124,212.632 296.124,228.386 296.067 C 244.141 296.010,231.367 295.963,200.000 295.963 C 168.633 295.963,155.743 296.010,171.356 296.067 M92.102 304.621 C 92.096 305.054,92.243 305.762,92.429 306.195 C 92.859 307.197,92.859 306.163,92.429 304.818 C 92.176 304.028,92.112 303.989,92.102 304.621 M93.656 309.931 C 93.650 310.256,93.887 311.052,94.184 311.701 C 94.880 313.220,94.890 312.514,94.199 310.718 C 93.907 309.961,93.663 309.607,93.656 309.931 M99.705 324.090 C 100.041 324.739,100.404 325.270,100.512 325.270 C 100.620 325.270,100.434 324.739,100.098 324.090 C 99.763 323.441,99.400 322.911,99.292 322.911 C 99.183 322.911,99.369 323.441,99.705 324.090 M101.278 326.844 C 101.614 327.493,101.977 328.024,102.085 328.024 C 102.193 328.024,102.007 327.493,101.672 326.844 C 101.336 326.195,100.973 325.664,100.865 325.664 C 100.757 325.664,100.943 326.195,101.278 326.844 M178.946 330.048 C 171.973 330.737,167.272 333.683,164.988 338.793 C 163.459 342.212,163.450 342.411,164.788 342.965 C 165.443 343.236,165.979 343.570,165.980 343.706 C 165.981 343.842,166.821 344.294,167.848 344.710 C 168.875 345.127,169.803 345.583,169.912 345.723 C 170.219 346.122,177.222 348.869,177.931 348.869 C 178.279 348.869,178.564 349.024,178.564 349.212 C 178.564 349.401,180.113 349.861,182.006 350.235 C 183.899 350.608,185.801 351.072,186.234 351.266 C 189.416 352.688,212.869 352.698,213.963 351.277 C 214.071 351.137,215.750 350.701,217.694 350.310 C 219.638 349.919,221.319 349.470,221.430 349.313 C 221.541 349.156,222.429 348.800,223.402 348.523 C 225.976 347.789,233.320 344.397,234.307 343.487 C 234.585 343.231,235.173 342.907,235.614 342.767 C 236.525 342.478,236.457 342.024,235.012 338.793 C 233.180 334.694,229.868 332.054,224.854 330.695 C 221.912 329.897,185.632 329.386,178.946 330.048 M106.159 334.251 C 106.372 334.647,106.854 335.222,107.232 335.529 C 107.657 335.874,107.562 335.599,106.983 334.808 C 105.950 333.397,105.562 333.135,106.159 334.251 M108.382 337.053 C 109.332 338.435,110.914 340.254,110.903 339.952 C 110.896 339.773,110.233 338.911,109.428 338.036 C 108.623 337.161,108.152 336.719,108.382 337.053 M112.692 342.281 C 113.537 343.309,114.291 344.149,114.368 344.149 C 114.649 344.149,112.941 341.964,112.061 341.200 C 111.564 340.767,111.848 341.254,112.692 342.281 M120.157 349.656 C 121.002 350.521,121.782 351.229,121.890 351.229 C 121.998 351.229,121.396 350.521,120.551 349.656 C 119.706 348.791,118.926 348.083,118.818 348.083 C 118.710 348.083,119.312 348.791,120.157 349.656 M126.647 354.912 C 126.647 355.020,127.178 355.487,127.827 355.949 C 128.476 356.411,129.007 356.701,129.007 356.592 C 129.007 356.484,128.476 356.018,127.827 355.556 C 127.178 355.093,126.647 354.804,126.647 354.912 M132.743 359.299 C 133.176 359.651,133.884 360.113,134.317 360.326 L 135.103 360.712 134.317 360.072 C 133.884 359.719,133.176 359.257,132.743 359.045 L 131.957 358.659 132.743 359.299 M137.856 362.446 C 138.289 362.798,138.997 363.260,139.430 363.472 L 140.216 363.859 139.430 363.218 C 138.997 362.866,138.289 362.404,137.856 362.191 L 137.070 361.805 137.856 362.446 " stroke="none" fill="#a36454" fill-rule="evenodd"></path><path id="path2" d="M139.823 176.594 C 132.640 177.924,126.798 183.207,125.249 189.774 C 121.728 204.699,129.054 216.855,141.915 217.427 C 156.278 218.066,163.980 207.960,161.650 191.534 C 160.963 186.684,158.228 182.522,153.737 179.492 C 149.930 176.923,144.337 175.758,139.823 176.594 M253.687 176.468 C 241.929 178.692,236.288 188.361,238.365 202.732 C 241.060 221.380,269.825 222.783,274.761 204.508 C 275.599 201.406,275.571 193.433,274.709 189.660 C 272.810 181.347,262.408 174.819,253.687 176.468 M146.902 182.669 C 152.789 185.751,150.376 194.100,143.599 194.100 C 135.933 194.100,133.860 183.429,141.294 182.240 C 142.117 182.109,142.886 181.847,143.002 181.658 C 143.279 181.210,144.935 181.639,146.902 182.669 M260.186 182.400 C 261.067 182.874,262.300 184.237,263.029 185.540 C 263.589 186.543,263.701 190.364,263.169 190.364 C 262.977 190.364,262.717 190.768,262.593 191.263 C 262.127 193.122,260.097 194.100,256.707 194.100 L 253.631 194.100 252.112 192.472 C 248.865 188.991,250.117 183.205,254.313 182.296 C 254.942 182.160,255.808 181.912,256.236 181.745 C 257.077 181.418,258.934 181.726,260.186 182.400 M174.967 246.690 C 171.053 248.872,171.602 253.949,175.975 256.011 C 176.858 256.428,179.705 257.781,182.301 259.018 C 189.329 262.367,192.732 262.333,194.166 258.902 C 195.464 255.793,194.236 253.231,190.651 251.570 C 189.519 251.045,187.001 249.873,185.054 248.965 C 177.689 245.530,177.232 245.427,174.967 246.690 M221.436 246.101 C 220.902 246.299,219.177 247.071,213.963 249.447 C 205.405 253.347,204.551 254.283,205.717 258.481 C 206.691 261.986,210.560 262.429,216.323 259.694 C 218.161 258.821,221.181 257.405,223.034 256.547 C 226.599 254.896,227.729 253.599,227.729 251.157 C 227.729 247.857,224.249 245.061,221.436 246.101 M38.264 249.951 C 38.267 251.032,38.343 251.428,38.434 250.830 C 38.524 250.233,38.522 249.348,38.428 248.864 C 38.335 248.380,38.261 248.869,38.264 249.951 M38.049 271.235 C 38.163 272.292,38.321 273.230,38.400 273.320 C 38.714 273.676,38.511 270.368,38.188 269.858 C 37.977 269.525,37.923 270.060,38.049 271.235 M141.527 296.486 C 138.546 297.711,137.394 300.473,138.035 304.858 C 138.463 307.782,140.167 313.968,140.787 314.848 C 140.939 315.064,141.384 316.126,141.776 317.207 C 142.167 318.289,142.702 319.440,142.964 319.764 C 143.226 320.088,143.543 320.647,143.670 321.005 C 144.163 322.402,148.327 328.349,150.512 330.777 C 154.709 335.440,162.885 342.388,163.392 341.723 C 163.447 341.651,164.159 340.224,164.975 338.551 C 168.995 330.310,171.710 329.623,200.197 329.641 C 230.217 329.659,230.763 329.841,236.642 341.723 C 237.253 342.957,249.749 331.280,253.018 326.420 C 256.369 321.438,260.374 313.277,260.374 311.430 C 260.374 311.125,260.536 310.707,260.735 310.501 C 262.952 308.206,262.373 299.321,259.877 297.345 L 258.635 296.362 200.409 296.289 C 168.385 296.249,141.888 296.338,141.527 296.486 " stroke="none" fill="#4e3e40" fill-rule="evenodd"></path><path id="path3" d="M192.210 0.597 C 190.522 0.880,188.840 1.245,188.474 1.407 C 188.107 1.569,187.689 1.717,187.545 1.736 C 187.401 1.755,187.150 1.903,186.988 2.065 C 186.826 2.227,186.428 2.360,186.104 2.360 C 185.538 2.360,180.784 4.578,179.154 5.602 C 174.679 8.414,168.986 13.446,166.175 17.074 C 165.526 17.911,164.730 18.886,164.405 19.241 C 164.081 19.596,163.550 20.412,163.226 21.054 C 162.902 21.697,162.544 22.311,162.430 22.419 C 162.114 22.720,160.691 24.949,160.673 25.172 C 160.594 26.128,159.950 26.500,155.556 28.130 C 149.717 30.296,148.468 30.816,148.345 31.130 C 148.273 31.314,147.919 31.466,147.558 31.467 C 147.198 31.467,146.372 31.786,145.723 32.175 C 145.074 32.564,143.923 33.124,143.166 33.419 C 142.409 33.713,141.524 34.162,141.200 34.415 C 140.875 34.668,139.990 35.116,139.233 35.409 C 138.476 35.703,137.768 36.047,137.660 36.173 C 137.552 36.300,136.711 36.735,135.792 37.140 C 134.872 37.546,134.120 38.016,134.120 38.185 C 134.120 38.354,133.751 38.609,133.300 38.752 C 132.396 39.039,128.684 41.244,127.959 41.925 C 127.707 42.161,126.955 42.581,126.287 42.857 C 125.620 43.134,125.074 43.487,125.074 43.642 C 125.074 43.798,124.645 44.120,124.121 44.359 C 123.314 44.727,117.698 48.778,115.562 50.534 C 115.198 50.834,114.410 51.400,113.811 51.792 C 113.212 52.184,112.354 52.860,111.905 53.293 C 111.455 53.726,110.317 54.700,109.376 55.457 C 106.484 57.786,103.495 60.559,98.349 65.690 C 92.058 71.963,89.714 74.606,83.470 82.465 C 81.073 85.482,77.483 90.395,77.483 90.658 C 77.483 90.785,76.802 91.811,75.970 92.937 C 75.138 94.064,74.158 95.516,73.793 96.165 C 73.427 96.814,72.612 98.142,71.982 99.115 C 71.352 100.088,70.523 101.504,70.141 102.262 C 69.758 103.019,69.303 103.815,69.129 104.031 C 68.622 104.661,67.057 107.624,64.665 112.488 C 60.911 120.120,60.570 120.878,60.570 121.611 C 60.570 122.001,60.400 122.321,60.192 122.321 C 59.984 122.321,59.558 123.183,59.245 124.237 C 58.932 125.291,58.416 126.662,58.097 127.285 C 57.779 127.907,57.387 129.026,57.227 129.771 C 56.759 131.940,56.205 132.250,54.422 131.337 C 53.585 130.909,52.193 130.364,51.327 130.126 C 50.462 129.889,49.143 129.426,48.396 129.098 C 45.650 127.891,31.797 128.082,30.110 129.350 C 29.882 129.521,28.677 129.896,27.434 130.184 C 26.190 130.471,25.172 130.854,25.172 131.036 C 25.172 131.218,24.944 131.367,24.665 131.367 C 24.387 131.367,23.457 131.740,22.600 132.197 C 21.743 132.654,20.584 133.272,20.024 133.571 C 17.274 135.039,9.440 142.682,9.440 143.897 C 9.440 144.144,9.268 144.346,9.058 144.346 C 8.848 144.346,8.350 145.058,7.951 145.927 C 7.552 146.797,7.105 147.387,6.956 147.238 C 6.808 147.090,6.686 147.190,6.686 147.461 C 6.686 147.732,6.067 149.211,5.310 150.747 C 4.553 152.284,3.933 153.847,3.933 154.221 C 3.933 154.594,3.768 154.959,3.566 155.031 C 3.142 155.182,1.765 159.789,0.940 163.815 C -0.407 170.384,0.011 189.804,1.562 192.702 C 1.764 193.080,2.217 194.654,2.569 196.199 C 2.920 197.744,3.359 199.102,3.545 199.216 C 3.730 199.331,4.164 200.395,4.508 201.581 C 4.853 202.766,5.307 203.736,5.517 203.736 C 5.728 203.736,5.900 204.029,5.900 204.387 C 5.900 205.011,8.505 210.016,9.041 210.423 C 9.184 210.531,9.400 210.892,9.523 211.226 C 9.878 212.195,14.217 217.896,14.599 217.896 C 14.790 217.896,14.949 218.117,14.953 218.387 C 14.971 219.704,27.622 230.875,29.096 230.875 C 29.317 230.875,29.499 231.050,29.499 231.263 C 29.499 231.477,30.074 231.915,30.777 232.239 C 31.480 232.562,32.321 233.000,32.645 233.213 C 33.764 233.947,36.780 235.268,38.643 235.839 C 40.444 236.391,40.910 236.991,40.151 237.778 C 39.723 238.222,38.545 247.032,38.545 249.790 C 38.545 250.852,38.368 251.721,38.151 251.721 C 37.642 251.721,37.619 268.318,38.126 269.982 C 38.328 270.646,38.765 273.794,39.097 276.977 C 39.429 280.160,39.870 283.081,40.078 283.467 C 40.286 283.853,40.742 285.713,41.092 287.601 C 41.441 289.488,41.984 291.523,42.297 292.124 C 42.610 292.724,42.867 293.543,42.869 293.943 C 42.870 294.342,43.121 295.227,43.427 295.909 C 43.732 296.591,44.289 298.122,44.665 299.312 C 45.040 300.501,45.461 301.563,45.601 301.672 C 45.740 301.780,46.096 302.621,46.392 303.540 C 47.383 306.618,53.983 319.372,54.754 319.698 C 54.925 319.771,55.064 320.035,55.064 320.285 C 55.064 320.669,57.579 324.661,58.205 325.270 C 58.316 325.379,59.115 326.520,59.980 327.806 C 60.846 329.093,61.908 330.523,62.340 330.985 C 62.773 331.446,63.569 332.409,64.110 333.124 C 67.878 338.105,77.736 348.266,82.822 352.409 C 84.282 353.599,85.672 354.749,85.912 354.966 C 87.343 356.261,92.850 360.275,93.195 360.275 C 93.423 360.275,93.609 360.458,93.609 360.681 C 93.609 360.904,93.918 361.205,94.295 361.350 C 94.673 361.495,95.868 362.286,96.950 363.107 C 98.033 363.928,99.449 364.875,100.098 365.211 C 100.747 365.547,102.075 366.334,103.048 366.962 C 104.022 367.589,105.438 368.411,106.195 368.790 C 106.952 369.168,107.660 369.596,107.768 369.741 C 107.876 369.886,108.673 370.360,109.538 370.794 C 110.403 371.229,112.881 372.475,115.044 373.563 C 120.046 376.081,123.818 377.820,125.074 378.186 C 125.615 378.344,126.146 378.594,126.254 378.740 C 126.362 378.887,127.512 379.333,128.810 379.731 C 130.108 380.129,131.259 380.571,131.367 380.713 C 131.573 380.983,135.304 382.320,138.643 383.321 C 139.725 383.645,140.875 384.052,141.200 384.225 C 141.524 384.398,142.763 384.767,143.953 385.045 C 145.143 385.323,146.293 385.687,146.509 385.855 C 146.726 386.022,148.496 386.468,150.442 386.845 C 152.389 387.222,154.169 387.674,154.397 387.850 C 154.625 388.025,156.749 388.468,159.117 388.833 C 161.484 389.199,163.510 389.624,163.618 389.779 C 163.727 389.933,166.028 390.347,168.732 390.698 C 171.436 391.049,174.223 391.448,174.926 391.583 C 176.488 391.884,176.575 391.387,175.122 390.465 C 164.576 383.772,157.045 378.169,150.090 371.843 C 144.278 366.557,142.025 364.710,140.519 363.995 C 130.587 359.282,116.327 347.297,108.249 336.873 C 106.908 335.143,105.655 333.539,105.466 333.309 C 104.018 331.552,100.197 324.977,98.165 320.747 C 93.921 311.911,92.485 307.471,90.344 296.559 C 90.110 295.369,89.912 290.501,89.903 285.742 C 89.886 276.302,90.050 275.274,93.294 264.503 C 96.770 252.963,96.833 252.654,96.853 247.001 C 96.881 238.899,94.988 232.526,90.236 224.718 C 74.920 199.550,79.810 166.026,101.502 147.495 C 102.893 146.307,104.120 145.244,104.228 145.133 C 104.718 144.631,108.959 141.598,110.914 140.350 L 113.078 138.970 114.010 135.070 C 116.606 124.215,120.776 111.773,125.072 102.065 C 125.455 101.200,126.307 99.253,126.966 97.738 C 143.750 59.168,186.881 5.113,200.871 5.113 C 202.139 5.113,202.212 5.044,202.011 4.031 C 201.893 3.437,201.683 2.286,201.543 1.475 L 201.289 -0.000 198.285 0.040 C 196.632 0.063,193.899 0.313,192.210 0.597 M239.226 7.866 C 239.226 8.623,239.307 8.933,239.406 8.555 C 239.505 8.176,239.505 7.557,239.406 7.178 C 239.307 6.799,239.226 7.109,239.226 7.866 M51.645 141.814 C 53.631 142.459,53.896 142.660,53.670 143.352 C 53.150 144.947,51.493 152.492,50.946 155.752 C 49.294 165.619,49.107 168.014,48.780 183.560 C 48.597 192.257,48.348 199.533,48.226 199.730 C 48.104 199.928,47.732 202.458,47.400 205.354 C 46.506 213.149,44.266 224.975,43.685 224.975 C 42.906 224.975,38.072 222.506,35.398 220.743 C 16.192 208.074,7.941 182.262,16.321 161.059 C 20.590 150.257,27.869 143.972,39.331 141.191 C 41.699 140.617,49.112 140.992,51.645 141.814 M145.723 176.431 C 146.598 176.795,150.451 177.704,150.579 177.576 C 150.775 177.380,146.689 176.198,145.946 176.236 C 145.607 176.253,145.506 176.340,145.723 176.431 M259.587 176.539 C 259.912 176.732,260.885 177.005,261.750 177.145 C 262.740 177.306,263.105 177.270,262.734 177.050 C 262.409 176.857,261.436 176.584,260.570 176.444 C 259.581 176.283,259.216 176.319,259.587 176.539 M250.344 177.202 C 249.361 177.675,249.328 177.730,250.147 177.530 C 251.262 177.257,252.515 176.619,251.917 176.628 C 251.701 176.631,250.993 176.889,250.344 177.202 M152.212 178.341 C 152.212 178.458,152.936 179.011,153.820 179.569 C 154.704 180.127,156.323 181.501,157.419 182.622 C 158.754 183.988,159.127 184.246,158.552 183.402 C 157.284 181.544,152.212 177.495,152.212 178.341 M266.035 178.648 C 266.445 178.927,267.596 179.754,268.592 180.488 C 269.929 181.472,270.171 181.568,269.517 180.855 C 269.030 180.323,267.879 179.495,266.961 179.015 C 266.042 178.535,265.625 178.370,266.035 178.648 M143.019 181.631 C 142.912 181.805,143.469 181.990,144.258 182.043 C 145.863 182.152,145.868 181.951,144.272 181.568 C 143.690 181.429,143.126 181.457,143.019 181.631 M257.033 181.715 C 257.165 181.929,257.626 182.104,258.057 182.104 C 259.203 182.104,260.972 183.118,261.912 184.313 C 262.364 184.887,262.734 185.174,262.734 184.951 C 262.734 184.282,260.045 182.133,258.892 181.880 C 258.301 181.751,257.587 181.574,257.305 181.486 C 257.023 181.398,256.901 181.502,257.033 181.715 M271.381 183.090 C 272.947 184.977,273.079 185.098,272.651 184.263 C 272.428 183.828,271.831 183.121,271.325 182.693 C 270.436 181.941,270.438 181.955,271.381 183.090 M147.308 183.164 C 147.747 183.554,148.411 184.312,148.783 184.847 C 149.155 185.381,149.459 185.642,149.459 185.426 C 149.459 184.754,148.281 183.311,147.374 182.872 C 146.511 182.454,146.511 182.454,147.308 183.164 M262.930 188.041 C 262.930 189.319,263.063 190.364,263.225 190.364 C 263.387 190.364,263.520 189.401,263.520 188.224 C 263.520 187.047,263.387 186.002,263.225 185.901 C 263.063 185.801,262.930 186.764,262.930 188.041 M149.654 188.001 C 149.655 189.041,149.789 189.811,149.951 189.711 C 150.336 189.475,150.334 186.532,149.949 186.294 C 149.786 186.193,149.653 186.961,149.654 188.001 M275.211 194.317 C 275.418 200.352,275.618 200.985,275.640 195.674 C 275.650 193.294,275.523 191.002,275.358 190.580 C 275.193 190.159,275.127 191.840,275.211 194.317 M161.851 195.355 C 161.859 197.992,161.995 200.278,162.153 200.435 C 162.501 200.783,162.448 193.392,162.090 191.740 C 161.949 191.091,161.842 192.718,161.851 195.355 M262.065 191.656 C 261.892 191.934,261.240 192.554,260.616 193.033 C 259.992 193.512,259.642 193.904,259.840 193.904 C 260.236 193.904,262.734 191.717,262.734 191.369 C 262.734 190.986,262.390 191.133,262.065 191.656 M124.440 196.853 C 124.441 199.666,124.503 200.765,124.579 199.295 C 124.655 197.826,124.654 195.525,124.578 194.182 C 124.501 192.839,124.439 194.041,124.440 196.853 M161.743 202.163 C 161.743 202.920,161.824 203.230,161.923 202.852 C 162.022 202.473,162.022 201.853,161.923 201.475 C 161.824 201.096,161.743 201.406,161.743 202.163 M274.972 203.409 C 274.947 203.770,274.824 204.390,274.700 204.786 C 274.485 205.469,274.497 205.470,274.923 204.806 C 275.170 204.420,275.293 203.801,275.195 203.429 C 275.035 202.820,275.013 202.818,274.972 203.409 M129.204 211.996 C 130.048 212.861,130.828 213.569,130.936 213.569 C 131.045 213.569,130.442 212.861,129.597 211.996 C 128.752 211.131,127.972 210.423,127.864 210.423 C 127.756 210.423,128.359 211.131,129.204 211.996 M270.206 212.193 C 269.251 213.166,268.558 213.963,268.666 213.963 C 268.774 213.963,269.644 213.166,270.600 212.193 C 271.555 211.219,272.248 210.423,272.140 210.423 C 272.032 210.423,271.162 211.219,270.206 212.193 M141.898 217.791 C 142.823 217.874,144.239 217.873,145.045 217.788 C 145.850 217.704,145.093 217.636,143.363 217.637 C 141.632 217.639,140.973 217.708,141.898 217.791 M255.173 217.791 C 256.098 217.874,257.514 217.873,258.319 217.788 C 259.125 217.704,258.368 217.636,256.637 217.637 C 254.907 217.639,254.248 217.708,255.173 217.791 M194.551 256.047 C 194.862 257.743,195.086 258.063,195.078 256.801 C 195.074 256.278,194.898 255.585,194.685 255.261 C 194.413 254.845,194.373 255.079,194.551 256.047 M188.692 261.831 C 189.179 261.925,189.975 261.925,190.462 261.831 C 190.949 261.737,190.551 261.661,189.577 261.661 C 188.604 261.661,188.206 261.737,188.692 261.831 M209.538 261.831 C 210.025 261.925,210.821 261.925,211.308 261.831 C 211.794 261.737,211.396 261.661,210.423 261.661 C 209.449 261.661,209.051 261.737,209.538 261.831 M179.449 329.868 C 179.828 329.967,180.447 329.967,180.826 329.868 C 181.205 329.769,180.895 329.688,180.138 329.688 C 179.381 329.688,179.071 329.769,179.449 329.868 M190.462 329.886 C 191.490 329.967,193.171 329.967,194.199 329.886 C 195.226 329.805,194.385 329.739,192.330 329.739 C 190.275 329.739,189.435 329.805,190.462 329.886 M205.801 329.886 C 206.829 329.967,208.510 329.967,209.538 329.886 C 210.565 329.805,209.725 329.739,207.670 329.739 C 205.615 329.739,204.774 329.805,205.801 329.886 M219.174 329.868 C 219.553 329.967,220.172 329.967,220.551 329.868 C 220.929 329.769,220.619 329.688,219.862 329.688 C 219.105 329.688,218.795 329.769,219.174 329.868 M248.746 331.662 L 247.591 332.940 248.869 331.785 C 249.572 331.149,250.147 330.574,250.147 330.507 C 250.147 330.203,249.823 330.470,248.746 331.662 M150.246 330.900 C 150.246 330.968,150.821 331.543,151.524 332.178 L 152.802 333.333 151.647 332.055 C 150.570 330.864,150.246 330.596,150.246 330.900 M167.530 334.612 L 166.175 336.087 167.650 334.731 C 169.023 333.470,169.306 333.137,169.005 333.137 C 168.940 333.137,168.276 333.800,167.530 334.612 M232.055 334.513 C 232.789 335.270,233.478 335.890,233.586 335.890 C 233.694 335.890,233.182 335.270,232.448 334.513 C 231.715 333.756,231.026 333.137,230.917 333.137 C 230.809 333.137,231.321 333.756,232.055 334.513 M154.769 335.497 C 155.614 336.362,156.394 337.070,156.502 337.070 C 156.610 337.070,156.007 336.362,155.162 335.497 C 154.317 334.631,153.538 333.923,153.429 333.923 C 153.321 333.923,153.924 334.631,154.769 335.497 M235.834 340.610 C 236.213 342.144,236.697 342.437,237.466 341.598 C 238.119 340.885,238.118 340.874,237.454 341.376 C 236.680 341.959,236.723 341.982,236.063 340.610 L 235.591 339.626 235.834 340.610 " stroke="none" fill="#835c4c" fill-rule="evenodd"></path><path id="path4" d="M138.662 130.528 C 138.024 130.665,141.706 130.777,146.845 130.777 C 151.983 130.777,155.780 130.662,155.282 130.521 C 154.122 130.194,140.198 130.200,138.662 130.528 M244.718 130.521 C 244.220 130.662,248.017 130.777,253.155 130.777 C 258.294 130.777,261.976 130.665,261.338 130.528 C 259.802 130.200,245.878 130.194,244.718 130.521 M130.973 131.870 C 130.000 132.100,129.469 132.345,129.794 132.413 C 130.118 132.481,131.357 132.293,132.547 131.995 C 133.736 131.697,134.267 131.453,133.727 131.452 C 133.186 131.452,131.947 131.640,130.973 131.870 M161.455 131.936 C 162.537 132.230,163.776 132.477,164.208 132.484 C 165.663 132.508,163.541 131.847,161.409 131.613 L 159.489 131.401 161.455 131.936 M236.775 131.870 C 235.801 132.100,235.270 132.345,235.595 132.413 C 235.919 132.481,237.158 132.293,238.348 131.995 C 239.538 131.697,240.069 131.453,239.528 131.452 C 238.987 131.452,237.748 131.640,236.775 131.870 M267.257 131.936 C 268.338 132.230,269.577 132.477,270.010 132.484 C 271.464 132.508,269.343 131.847,267.210 131.613 L 265.290 131.401 267.257 131.936 M125.401 133.473 C 124.607 133.721,123.811 134.078,123.631 134.267 C 123.259 134.658,124.676 134.279,126.450 133.513 C 127.901 132.887,127.345 132.866,125.401 133.473 M167.748 133.485 C 168.397 133.781,169.371 134.131,169.912 134.264 C 170.701 134.458,170.663 134.399,169.715 133.968 C 169.066 133.672,168.092 133.322,167.552 133.189 C 166.762 132.996,166.801 133.054,167.748 133.485 M230.949 133.602 C 230.016 133.932,229.322 134.271,229.407 134.356 C 229.587 134.536,233.235 133.338,233.235 133.100 C 233.235 132.853,232.787 132.952,230.949 133.602 M273.550 133.476 C 275.373 134.321,276.631 134.651,276.360 134.213 C 276.230 134.001,275.632 133.729,275.033 133.608 C 274.433 133.487,273.589 133.285,273.156 133.158 C 272.724 133.032,272.901 133.175,273.550 133.476 M120.059 135.493 C 119.356 135.799,118.781 136.148,118.781 136.269 C 118.781 136.488,121.520 135.444,121.874 135.091 C 122.223 134.742,121.334 134.939,120.059 135.493 M172.324 135.091 C 172.655 135.421,175.418 136.496,175.418 136.294 C 175.418 136.186,174.777 135.829,173.993 135.502 C 172.542 134.896,171.994 134.761,172.324 135.091 M225.860 135.530 C 225.157 135.837,224.582 136.179,224.582 136.290 C 224.582 136.494,227.341 135.425,227.676 135.091 C 228.010 134.756,227.158 134.962,225.860 135.530 M278.126 135.091 C 278.481 135.445,281.219 136.488,281.219 136.268 C 281.219 136.146,280.605 135.790,279.855 135.476 C 278.486 134.904,277.783 134.747,278.126 135.091 M116.323 137.293 C 115.511 137.722,114.848 138.160,114.848 138.267 C 114.848 138.442,117.954 136.991,118.355 136.628 C 118.807 136.219,117.626 136.605,116.323 137.293 M175.844 136.628 C 176.246 136.992,179.351 138.442,179.351 138.266 C 179.351 138.042,176.383 136.480,175.958 136.480 C 175.805 136.480,175.754 136.547,175.844 136.628 M222.124 137.293 C 221.313 137.722,220.649 138.160,220.649 138.267 C 220.649 138.442,223.756 136.991,224.156 136.628 C 224.609 136.219,223.427 136.605,222.124 137.293 M281.645 136.628 C 282.193 137.123,285.187 138.428,284.970 138.076 C 284.824 137.841,284.076 137.385,283.308 137.064 C 281.944 136.494,281.315 136.329,281.645 136.628 M110.324 140.985 C 81.318 161.236,73.040 195.123,90.059 223.938 C 97.725 236.916,99.066 246.717,94.972 259.847 C 90.758 273.364,89.860 277.918,89.907 285.546 C 90.089 315.513,107.248 343.428,136.480 361.314 C 141.359 364.299,144.754 366.245,143.166 365.147 C 141.751 364.168,136.923 359.107,133.266 354.769 C 113.816 331.696,105.475 310.321,101.805 274.140 C 100.710 263.346,100.481 232.509,101.411 221.042 C 103.257 198.291,104.939 184.118,107.785 167.355 C 108.446 163.461,109.162 159.213,109.376 157.915 C 110.915 148.581,112.951 139.783,113.723 139.135 C 115.474 137.663,113.698 138.629,110.324 140.985 M180.728 139.233 C 181.377 139.663,182.085 140.015,182.301 140.016 C 182.517 140.016,182.115 139.663,181.406 139.232 C 179.737 138.213,179.190 138.215,180.728 139.233 M218.682 139.233 C 217.925 139.648,217.447 139.994,217.620 140.003 C 218.037 140.025,220.256 138.872,220.256 138.633 C 220.256 138.376,220.233 138.384,218.682 139.233 M285.939 138.860 C 286.981 139.570,288.692 140.439,288.692 140.259 C 288.692 140.005,286.105 138.445,285.696 138.452 C 285.505 138.456,285.615 138.639,285.939 138.860 M183.677 140.640 C 183.677 140.905,185.721 141.648,185.915 141.453 C 186.005 141.364,185.538 141.102,184.878 140.872 C 184.217 140.642,183.677 140.538,183.677 140.640 M214.430 141.075 C 213.497 141.405,212.804 141.746,212.891 141.832 C 213.097 142.039,215.625 141.190,216.106 140.753 C 216.573 140.328,216.504 140.342,214.430 141.075 M289.282 140.682 C 289.499 140.892,290.649 141.732,291.839 142.549 C 293.583 143.748,293.735 143.804,292.625 142.842 C 291.347 141.733,288.405 139.833,289.282 140.682 M351.055 141.148 C 350.418 141.284,352.532 141.396,355.752 141.396 C 358.973 141.396,361.086 141.284,360.450 141.148 C 359.813 141.011,357.699 140.899,355.752 140.899 C 353.805 140.899,351.691 141.011,351.055 141.148 M38.345 141.744 C 12.350 146.883,4.623 186.356,24.849 210.688 C 30.405 217.373,42.187 225.939,43.628 224.342 C 45.560 222.201,48.274 198.661,48.768 179.744 C 49.201 163.209,49.522 160.200,52.110 148.476 C 53.535 142.016,53.673 142.674,50.737 141.915 C 47.739 141.139,41.818 141.057,38.345 141.744 M189.184 142.720 C 189.508 142.917,190.570 143.187,191.544 143.320 C 192.679 143.476,193.032 143.441,192.527 143.224 C 191.362 142.722,188.465 142.286,189.184 142.720 M208.456 142.995 L 206.686 143.533 208.456 143.305 C 210.213 143.079,212.123 142.371,210.816 142.430 C 210.492 142.445,209.430 142.699,208.456 142.995 M346.362 142.693 C 346.255 142.866,346.309 143.235,346.481 143.513 C 346.709 143.882,346.852 143.797,347.008 143.199 C 347.215 142.408,346.759 142.051,346.362 142.693 M364.602 142.539 C 364.602 142.627,365.398 142.970,366.372 143.302 C 368.459 144.013,368.739 143.769,366.778 142.949 C 365.428 142.386,364.602 142.230,364.602 142.539 M370.342 145.109 C 373.797 147.091,377.537 150.904,381.031 156.006 C 381.448 156.616,381.454 156.574,381.065 155.752 C 379.245 151.902,370.931 143.937,368.753 143.956 C 368.525 143.959,369.240 144.477,370.342 145.109 M298.239 147.636 C 299.488 148.845,301.499 150.857,302.708 152.105 L 304.906 154.376 302.875 151.938 C 301.757 150.598,299.746 148.587,298.406 147.469 L 295.969 145.438 298.239 147.636 M347.404 147.099 C 347.525 147.640,347.831 149.114,348.084 150.375 C 348.337 151.636,348.621 152.592,348.714 152.499 C 348.930 152.283,347.749 146.627,347.427 146.335 C 347.294 146.214,347.284 146.559,347.404 147.099 M349.051 154.769 C 349.152 155.418,349.440 157.417,349.690 159.211 C 349.940 161.006,350.221 162.398,350.314 162.305 C 350.560 162.059,349.620 155.307,349.211 154.376 C 348.942 153.762,348.906 153.849,349.051 154.769 M307.432 158.210 C 309.767 161.594,310.987 163.094,309.752 161.062 C 308.616 159.193,305.584 154.966,305.379 154.966 C 305.277 154.966,306.201 156.426,307.432 158.210 M381.920 157.939 C 381.913 158.168,382.167 158.699,382.485 159.119 C 382.803 159.538,383.068 159.695,383.075 159.466 C 383.082 159.236,382.828 158.706,382.510 158.286 C 382.192 157.866,381.927 157.710,381.920 157.939 M383.904 162.439 C 383.907 162.763,384.160 163.559,384.466 164.208 L 385.022 165.388 384.788 164.208 C 384.496 162.731,383.895 161.529,383.904 162.439 M311.111 164.012 C 311.553 164.877,312.002 165.585,312.110 165.585 C 312.219 165.585,311.946 164.877,311.504 164.012 C 311.063 163.147,310.613 162.439,310.505 162.439 C 310.397 162.439,310.670 163.147,311.111 164.012 M312.712 166.962 C 312.712 167.178,312.965 167.797,313.274 168.338 C 313.583 168.879,313.836 169.145,313.836 168.928 C 313.836 168.712,313.583 168.092,313.274 167.552 C 312.965 167.011,312.712 166.745,312.712 166.962 M385.646 168.535 C 386.195 171.730,386.612 175.962,386.693 179.154 L 386.784 182.694 386.927 179.744 C 387.082 176.551,386.408 169.570,385.812 168.201 C 385.504 167.494,385.477 167.549,385.646 168.535 M351.028 174.664 C 351.135 178.215,351.318 185.015,351.435 189.774 C 351.553 194.533,351.817 199.046,352.022 199.803 C 352.369 201.087,352.379 201.061,352.175 199.410 C 352.055 198.437,351.819 191.132,351.650 183.177 C 351.481 175.223,351.229 168.600,351.089 168.461 C 350.950 168.321,350.922 171.113,351.028 174.664 M314.507 171.091 C 314.640 171.632,314.990 172.606,315.285 173.255 C 315.717 174.202,315.775 174.241,315.582 173.451 C 315.449 172.911,315.099 171.937,314.803 171.288 C 314.372 170.340,314.313 170.302,314.507 171.091 M139.541 176.134 C 139.169 176.281,140.877 176.401,143.337 176.401 C 145.796 176.401,147.604 176.271,147.355 176.112 C 146.792 175.752,140.460 175.770,139.541 176.134 M255.371 176.101 C 256.405 176.182,257.998 176.181,258.911 176.099 C 259.823 176.016,258.977 175.950,257.030 175.951 C 255.084 175.952,254.337 176.020,255.371 176.101 M316.273 176.008 C 316.255 176.224,316.486 177.286,316.787 178.368 C 317.088 179.449,317.336 179.980,317.339 179.548 C 317.344 178.710,316.330 175.342,316.273 176.008 M134.808 177.609 C 133.283 178.437,133.456 178.722,135.005 177.935 C 136.488 177.181,136.750 176.985,136.250 177.007 C 136.052 177.016,135.403 177.287,134.808 177.609 M150.279 177.138 C 150.683 177.500,152.999 178.564,152.999 178.388 C 152.999 178.161,150.819 176.991,150.396 176.991 C 150.241 176.991,150.188 177.057,150.279 177.138 M248.279 177.578 C 247.576 177.883,247.001 178.221,247.001 178.329 C 247.001 178.518,249.782 177.462,250.115 177.146 C 250.458 176.821,249.506 177.044,248.279 177.578 M264.307 177.581 C 264.848 177.890,265.467 178.143,265.683 178.143 C 265.900 178.143,265.634 177.890,265.093 177.581 C 264.553 177.272,263.933 177.019,263.717 177.019 C 263.500 177.019,263.766 177.272,264.307 177.581 M245.155 179.576 L 244.051 180.588 245.329 179.699 C 246.032 179.210,246.608 178.755,246.608 178.687 C 246.608 178.377,246.173 178.643,245.155 179.576 M268.916 180.313 C 270.044 181.320,271.523 182.798,272.201 183.599 C 272.880 184.399,273.235 184.661,272.992 184.180 C 272.420 183.049,268.869 179.497,267.738 178.925 C 267.257 178.682,267.787 179.306,268.916 180.313 M129.185 181.809 L 127.630 183.481 129.302 181.926 C 130.856 180.480,131.154 180.138,130.857 180.138 C 130.792 180.138,130.040 180.890,129.185 181.809 M157.129 181.711 C 157.974 182.576,158.754 183.284,158.862 183.284 C 158.970 183.284,158.367 182.576,157.522 181.711 C 156.677 180.846,155.897 180.138,155.789 180.138 C 155.681 180.138,156.284 180.846,157.129 181.711 M260.330 183.203 C 260.847 183.620,261.615 184.384,262.036 184.901 C 262.457 185.418,262.671 185.575,262.511 185.251 C 262.037 184.288,261.027 183.238,260.181 182.828 C 259.581 182.537,259.617 182.627,260.330 183.203 M386.073 185.546 C 385.924 187.006,385.718 188.643,385.616 189.184 L 385.429 190.167 385.832 189.246 C 386.269 188.248,386.867 182.891,386.541 182.891 C 386.432 182.891,386.221 184.086,386.073 185.546 M318.084 184.661 C 318.234 185.526,318.357 189.243,318.357 192.920 C 318.357 196.598,318.234 200.315,318.084 201.180 C 317.844 202.558,317.866 202.631,318.261 201.770 C 318.551 201.136,318.711 197.994,318.711 192.920 C 318.711 187.847,318.551 184.705,318.261 184.071 C 317.866 183.210,317.844 183.283,318.084 184.661 M159.255 184.395 C 159.494 184.841,159.883 185.327,160.120 185.473 C 160.428 185.664,160.427 185.509,160.116 184.927 C 159.877 184.480,159.487 183.995,159.251 183.849 C 158.942 183.658,158.943 183.813,159.255 184.395 M251.087 185.066 C 250.728 185.614,250.506 186.133,250.593 186.221 C 250.681 186.308,251.050 185.860,251.415 185.225 C 252.227 183.811,251.986 183.694,251.087 185.066 M274.429 187.615 C 274.770 188.482,275.120 189.121,275.207 189.034 C 275.397 188.845,274.261 186.037,273.995 186.037 C 273.893 186.037,274.088 186.747,274.429 187.615 M125.117 188.048 C 124.875 188.743,124.746 189.380,124.830 189.464 C 124.914 189.549,125.181 189.049,125.423 188.354 C 125.666 187.658,125.795 187.021,125.711 186.937 C 125.627 186.853,125.360 187.353,125.117 188.048 M149.550 188.004 C 149.550 188.761,149.631 189.071,149.730 188.692 C 149.829 188.314,149.829 187.694,149.730 187.316 C 149.631 186.937,149.550 187.247,149.550 188.004 M161.217 188.210 C 161.890 190.320,162.056 190.581,161.845 189.196 C 161.731 188.446,161.459 187.653,161.241 187.435 C 160.974 187.169,160.966 187.422,161.217 188.210 M238.394 188.436 C 238.152 189.128,237.967 189.889,237.982 190.128 C 237.998 190.366,238.264 189.868,238.574 189.022 C 238.884 188.175,239.069 187.414,238.985 187.330 C 238.901 187.246,238.635 187.744,238.394 188.436 M149.066 190.268 C 149.066 190.504,148.585 191.286,147.998 192.005 C 147.120 193.081,147.092 193.175,147.838 192.531 C 148.898 191.618,149.621 190.395,149.294 190.068 C 149.169 189.942,149.066 190.032,149.066 190.268 M384.127 194.353 C 383.336 197.051,383.594 197.309,384.464 194.690 C 384.833 193.581,385.045 192.583,384.935 192.474 C 384.826 192.364,384.462 193.210,384.127 194.353 M146.207 193.353 C 146.077 193.484,145.030 193.740,143.880 193.924 L 141.790 194.258 143.878 194.136 C 145.426 194.046,147.956 193.117,146.654 193.117 C 146.538 193.117,146.337 193.223,146.207 193.353 M255.949 194.181 C 256.436 194.275,257.232 194.275,257.719 194.181 C 258.206 194.087,257.807 194.011,256.834 194.011 C 255.860 194.011,255.462 194.087,255.949 194.181 M382.379 199.007 C 381.927 200.094,381.646 200.983,381.755 200.983 C 382.045 200.983,383.576 197.408,383.373 197.205 C 383.278 197.110,382.831 197.921,382.379 199.007 M380.608 202.758 C 380.248 203.513,380.035 204.130,380.134 204.130 C 380.403 204.130,381.597 201.722,381.417 201.542 C 381.332 201.456,380.968 202.004,380.608 202.758 M238.002 204.130 C 237.996 204.454,238.233 205.251,238.531 205.900 C 239.226 207.419,239.236 206.712,238.545 204.916 C 238.253 204.159,238.009 203.805,238.002 204.130 M274.476 206.306 C 274.132 207.263,273.991 207.958,274.163 207.852 C 274.532 207.624,275.465 204.931,275.249 204.715 C 275.168 204.634,274.820 205.349,274.476 206.306 M377.985 206.981 C 376.827 208.726,376.695 209.040,377.530 208.063 C 378.774 206.607,380.111 204.523,379.801 204.523 C 379.700 204.523,378.882 205.629,377.985 206.981 M316.618 207.670 C 316.352 208.775,316.224 209.767,316.332 209.875 C 316.440 209.983,316.746 209.168,317.011 208.063 C 317.276 206.958,317.404 205.965,317.296 205.857 C 317.188 205.749,316.883 206.565,316.618 207.670 M353.056 208.388 C 353.179 209.757,353.429 211.350,353.611 211.928 C 354.028 213.255,353.645 209.259,353.165 207.276 C 352.925 206.287,352.894 206.599,353.056 208.388 M159.382 209.468 C 158.896 210.209,158.576 210.816,158.672 210.816 C 158.945 210.816,160.575 208.428,160.412 208.265 C 160.332 208.185,159.868 208.726,159.382 209.468 M372.468 213.516 C 370.629 215.425,368.240 217.738,367.158 218.656 C 366.077 219.573,365.723 219.973,366.372 219.544 C 368.740 217.978,376.782 209.993,375.946 210.037 C 375.872 210.040,374.307 211.606,372.468 213.516 M129.384 212.488 C 131.014 214.224,131.367 214.537,131.367 214.241 C 131.367 214.178,130.526 213.337,129.499 212.373 L 127.630 210.619 129.384 212.488 M156.342 213.054 C 155.261 214.049,154.907 214.500,155.556 214.058 C 156.661 213.304,158.843 211.188,158.476 211.227 C 158.384 211.237,157.424 212.059,156.342 213.054 M314.893 213.418 C 314.545 214.440,314.328 215.344,314.411 215.427 C 314.494 215.510,314.847 214.742,315.196 213.721 C 315.544 212.699,315.761 211.795,315.677 211.711 C 315.594 211.628,315.241 212.396,314.893 213.418 M131.958 214.751 C 132.221 215.178,134.513 216.454,134.513 216.175 C 134.513 216.082,133.883 215.635,133.113 215.181 C 132.343 214.726,131.823 214.533,131.958 214.751 M152.802 215.563 C 152.153 215.978,151.824 216.319,152.070 216.320 C 152.317 216.322,152.936 215.974,153.447 215.549 C 154.616 214.575,154.335 214.581,152.802 215.563 M246.553 215.513 C 247.064 215.958,247.668 216.323,247.897 216.323 C 248.380 216.323,248.357 216.303,246.804 215.394 L 245.624 214.703 246.553 215.513 M266.568 215.368 C 265.098 216.165,265.187 216.497,266.667 215.733 C 267.316 215.397,267.847 215.038,267.847 214.936 C 267.847 214.683,267.804 214.697,266.568 215.368 M261.750 217.317 C 260.885 217.602,260.531 217.841,260.964 217.848 C 261.396 217.855,262.281 217.617,262.930 217.320 C 264.417 216.639,263.811 216.638,261.750 217.317 M312.952 218.111 C 312.028 220.048,312.158 220.378,313.123 218.547 C 313.562 217.715,313.852 216.965,313.767 216.880 C 313.682 216.795,313.315 217.349,312.952 218.111 M141.898 218.184 C 142.823 218.267,144.239 218.266,145.045 218.182 C 145.850 218.097,145.093 218.029,143.363 218.031 C 141.632 218.032,140.973 218.101,141.898 218.184 M255.173 218.184 C 256.098 218.267,257.514 218.266,258.319 218.182 C 259.125 218.097,258.368 218.029,256.637 218.031 C 254.907 218.032,254.248 218.101,255.173 218.184 M354.808 218.368 C 354.756 219.261,355.589 223.106,355.792 222.904 C 355.880 222.816,355.703 221.609,355.400 220.222 C 355.096 218.834,354.830 218.000,354.808 218.368 M311.111 221.829 C 310.670 222.694,310.397 223.402,310.505 223.402 C 310.613 223.402,311.063 222.694,311.504 221.829 C 311.946 220.964,312.219 220.256,312.110 220.256 C 312.002 220.256,311.553 220.964,311.111 221.829 M363.520 221.088 C 362.180 221.946,361.746 222.523,362.930 221.872 C 363.833 221.376,365.246 220.282,364.995 220.275 C 364.887 220.272,364.223 220.637,363.520 221.088 M360.767 222.628 C 360.280 222.823,359.882 223.078,359.882 223.193 C 359.882 223.575,360.508 223.410,361.282 222.825 C 362.152 222.167,362.030 222.120,360.767 222.628 M309.688 224.287 C 308.334 226.584,308.246 226.780,308.935 225.959 C 309.734 225.007,310.423 223.795,310.165 223.795 C 310.062 223.795,309.847 224.017,309.688 224.287 M307.356 228.158 C 307.010 228.828,306.796 229.445,306.882 229.530 C 306.967 229.615,307.331 229.068,307.691 228.314 C 308.500 226.617,308.220 226.488,307.356 228.158 M305.758 231.508 C 305.432 232.288,305.237 232.998,305.324 233.085 C 305.411 233.172,305.761 232.534,306.102 231.666 C 306.872 229.704,306.570 229.565,305.758 231.508 M304.101 236.469 C 303.471 238.919,303.121 240.935,303.365 240.706 C 303.656 240.433,304.870 235.122,304.683 234.936 C 304.601 234.853,304.339 235.543,304.101 236.469 M302.951 243.265 C 302.955 244.130,303.036 244.437,303.130 243.948 C 303.224 243.459,303.220 242.751,303.122 242.375 C 303.023 241.999,302.946 242.399,302.951 243.265 M173.259 247.390 C 172.639 248.037,172.208 248.629,172.300 248.706 C 172.392 248.782,172.972 248.253,173.588 247.530 C 174.980 245.896,174.773 245.809,173.259 247.390 M225.369 246.337 C 225.369 246.405,225.944 246.980,226.647 247.616 L 227.925 248.771 226.770 247.493 C 225.693 246.301,225.369 246.034,225.369 246.337 M302.943 250.541 C 302.943 251.298,303.024 251.608,303.123 251.229 C 303.222 250.851,303.222 250.231,303.123 249.853 C 303.024 249.474,302.943 249.784,302.943 250.541 M206.700 252.548 C 205.935 253.219,205.310 253.967,205.310 254.209 C 205.310 254.451,205.596 254.240,205.946 253.741 C 206.295 253.242,207.136 252.495,207.814 252.082 C 208.492 251.669,208.831 251.330,208.568 251.329 C 208.305 251.328,207.465 251.877,206.700 252.548 M193.342 252.938 C 193.975 253.715,194.573 254.285,194.670 254.203 C 194.767 254.122,194.249 253.486,193.519 252.790 L 192.191 251.524 193.342 252.938 M303.499 254.454 C 303.724 256.127,304.742 259.425,304.781 258.604 C 304.792 258.387,304.455 256.971,304.032 255.457 C 303.452 253.375,303.322 253.131,303.499 254.454 M172.271 253.559 C 172.271 254.121,174.897 256.441,175.530 256.439 C 175.793 256.438,175.453 256.099,174.776 255.686 C 174.098 255.273,173.257 254.526,172.907 254.027 C 172.558 253.528,172.271 253.317,172.271 253.559 M226.381 254.830 L 225.229 256.244 226.557 254.978 C 227.287 254.282,227.806 253.646,227.708 253.564 C 227.611 253.483,227.014 254.053,226.381 254.830 M204.947 258.037 C 204.930 258.374,205.192 258.994,205.528 259.414 C 206.130 260.165,206.134 260.164,205.778 259.390 C 205.579 258.958,205.318 258.338,205.197 258.014 C 205.008 257.504,204.974 257.507,204.947 258.037 M305.477 261.357 C 305.606 262.006,305.859 262.802,306.039 263.127 C 306.628 264.186,306.425 262.684,305.800 261.357 L 305.244 260.177 305.477 261.357 M209.735 262.218 C 210.113 262.317,210.733 262.317,211.111 262.218 C 211.490 262.119,211.180 262.038,210.423 262.038 C 209.666 262.038,209.356 262.119,209.735 262.218 M307.424 267.847 C 307.561 268.604,307.828 269.577,308.018 270.010 C 308.254 270.550,308.284 270.365,308.112 269.420 C 307.975 268.663,307.708 267.689,307.518 267.257 C 307.282 266.717,307.252 266.902,307.424 267.847 M308.916 273.746 C 309.016 274.287,309.313 276.281,309.575 278.176 C 309.837 280.072,310.133 281.542,310.232 281.443 C 310.483 281.192,309.511 274.509,309.084 273.550 C 308.783 272.875,308.759 272.903,308.916 273.746 M309.615 292.720 C 309.355 295.216,309.054 297.853,308.946 298.580 L 308.750 299.902 309.139 298.722 C 309.603 297.316,310.482 289.360,310.250 288.666 C 310.161 288.399,309.876 290.223,309.615 292.720 M141.200 296.183 C 140.769 296.475,140.928 296.511,141.790 296.318 C 143.236 295.995,143.550 295.770,142.543 295.778 C 142.129 295.781,141.524 295.964,141.200 296.183 M256.867 295.913 C 256.957 295.991,257.561 296.173,258.210 296.318 C 259.072 296.511,259.231 296.475,258.800 296.183 C 258.269 295.824,256.472 295.573,256.867 295.913 M138.647 298.128 C 138.027 298.774,137.603 299.386,137.703 299.486 C 137.803 299.586,138.373 299.057,138.969 298.310 C 140.302 296.640,140.153 296.555,138.647 298.128 M307.604 304.311 C 307.350 305.347,307.053 306.549,306.945 306.981 C 306.780 307.635,306.814 307.663,307.143 307.143 C 307.606 306.413,308.459 302.822,308.225 302.588 C 308.137 302.500,307.858 303.276,307.604 304.311 M137.738 306.195 C 137.738 306.627,137.880 307.424,138.053 307.965 C 138.302 308.743,138.368 308.784,138.368 308.161 C 138.368 307.729,138.226 306.932,138.053 306.391 C 137.804 305.613,137.738 305.572,137.738 306.195 M261.665 307.809 C 261.423 308.867,261.287 309.796,261.363 309.872 C 261.582 310.090,262.402 306.774,262.246 306.305 C 262.169 306.073,261.907 306.750,261.665 307.809 M305.674 310.689 C 305.021 312.561,305.127 313.146,305.827 311.534 C 306.148 310.793,306.349 310.002,306.274 309.775 C 306.198 309.548,305.928 309.959,305.674 310.689 M259.890 313.774 C 259.031 316.160,259.295 316.425,260.192 314.076 C 260.571 313.085,260.806 312.199,260.714 312.107 C 260.623 312.016,260.252 312.766,259.890 313.774 M303.900 315.503 C 303.544 316.409,303.318 317.215,303.396 317.294 C 303.475 317.372,303.835 316.699,304.195 315.798 C 304.556 314.897,304.783 314.091,304.699 314.008 C 304.616 313.924,304.256 314.597,303.900 315.503 M141.227 317.207 C 141.227 317.424,141.480 318.043,141.790 318.584 C 142.099 319.125,142.352 319.390,142.352 319.174 C 142.352 318.958,142.099 318.338,141.790 317.797 C 141.480 317.257,141.227 316.991,141.227 317.207 M301.939 319.979 C 301.015 321.917,301.145 322.246,302.111 320.415 C 302.549 319.584,302.839 318.834,302.754 318.749 C 302.669 318.664,302.302 319.217,301.939 319.979 M142.970 320.944 C 143.305 321.593,143.668 322.124,143.776 322.124 C 143.885 322.124,143.698 321.593,143.363 320.944 C 143.027 320.295,142.664 319.764,142.556 319.764 C 142.448 319.764,142.634 320.295,142.970 320.944 M256.244 321.731 C 255.908 322.380,255.722 322.911,255.830 322.911 C 255.939 322.911,256.302 322.380,256.637 321.731 C 256.973 321.082,257.159 320.551,257.051 320.551 C 256.943 320.551,256.579 321.082,256.244 321.731 M300.098 323.697 C 299.657 324.562,299.384 325.270,299.492 325.270 C 299.601 325.270,300.050 324.562,300.492 323.697 C 300.933 322.832,301.206 322.124,301.098 322.124 C 300.989 322.124,300.540 322.832,300.098 323.697 M298.477 326.549 C 298.219 327.035,297.240 328.604,296.300 330.035 C 295.361 331.465,294.592 332.783,294.592 332.962 C 294.592 333.142,295.448 331.972,296.493 330.362 C 298.655 327.034,299.427 325.664,299.143 325.664 C 299.035 325.664,298.735 326.062,298.477 326.549 M250.620 329.892 C 248.941 331.958,248.720 332.326,249.934 331.032 C 251.621 329.233,253.498 326.844,253.222 326.844 C 253.153 326.844,251.983 328.215,250.620 329.892 M292.963 334.808 C 292.327 335.715,292.268 335.925,292.761 335.529 C 293.461 334.966,294.383 333.530,294.043 333.530 C 293.942 333.530,293.456 334.105,292.963 334.808 M155.890 336.848 C 156.940 337.837,158.355 339.028,159.037 339.495 C 160.748 340.668,159.984 339.936,156.735 337.291 C 154.445 335.427,154.303 335.352,155.890 336.848 M244.155 336.490 C 243.347 337.242,242.826 337.856,242.996 337.856 C 243.167 337.856,243.907 337.237,244.641 336.480 C 246.353 334.713,246.060 334.720,244.155 336.490 M290.304 338.250 C 289.392 339.331,288.789 340.209,288.964 340.200 C 289.284 340.183,292.432 336.283,292.126 336.283 C 292.036 336.283,291.216 337.168,290.304 338.250 M240.905 339.267 L 239.725 340.281 241.003 339.435 C 241.706 338.970,242.281 338.513,242.281 338.420 C 242.281 338.125,242.115 338.228,240.905 339.267 M284.751 344.385 C 282.701 346.462,279.823 349.205,278.358 350.482 C 276.892 351.758,275.830 352.802,275.999 352.802 C 276.573 352.802,284.922 345.010,287.483 342.085 C 289.687 339.566,288.638 340.449,284.751 344.385 M235.300 342.869 C 234.597 343.219,234.022 343.657,234.022 343.841 C 234.022 344.208,234.947 343.768,236.185 342.814 C 237.181 342.047,236.921 342.063,235.300 342.869 M164.465 343.184 C 164.822 343.549,165.329 343.776,165.591 343.689 C 165.853 343.601,165.561 343.303,164.941 343.025 C 163.887 342.553,163.857 342.563,164.465 343.184 M167.355 344.828 C 168.856 345.780,169.912 346.176,169.912 345.789 C 169.912 345.623,169.248 345.232,168.437 344.919 C 166.147 344.036,166.099 344.032,167.355 344.828 M231.563 344.963 C 230.752 345.391,230.088 345.821,230.088 345.919 C 230.088 346.191,232.029 345.392,232.968 344.734 C 234.154 343.904,233.309 344.041,231.563 344.963 M172.923 347.496 C 176.200 349.028,178.564 349.755,178.564 349.231 C 178.564 349.032,178.255 348.866,177.876 348.862 C 177.498 348.858,175.692 348.239,173.863 347.485 C 169.689 345.767,169.233 345.772,172.923 347.496 M227.434 346.914 C 226.514 347.323,225.762 347.742,225.762 347.846 C 225.762 348.150,229.279 346.865,229.521 346.473 C 229.836 345.963,229.337 346.068,227.434 346.914 M222.911 348.595 C 222.099 348.822,221.436 349.166,221.436 349.358 C 221.436 349.731,222.459 349.488,224.385 348.656 C 225.791 348.050,224.979 348.016,222.911 348.595 M179.802 350.016 C 180.582 350.522,186.073 351.717,186.349 351.442 C 186.604 351.187,185.962 351.000,182.949 350.450 C 181.575 350.199,180.159 349.904,179.803 349.795 C 179.201 349.611,179.201 349.627,179.802 350.016 M217.109 350.376 C 214.044 351.010,213.719 351.117,214.000 351.397 C 214.237 351.635,219.411 350.517,220.196 350.059 C 220.995 349.593,220.797 349.613,217.109 350.376 M188.326 352.035 C 191.286 353.232,209.933 353.206,211.972 352.003 C 212.363 351.772,211.871 351.744,210.619 351.926 C 208.116 352.291,191.983 352.301,189.381 351.939 C 188.005 351.749,187.688 351.777,188.326 352.035 M273.058 354.793 C 271.922 355.665,270.993 356.470,270.993 356.584 C 270.993 356.814,272.554 355.707,274.336 354.213 C 276.195 352.655,275.337 353.044,273.058 354.793 M269.365 357.544 C 268.485 358.311,268.482 358.331,269.300 357.936 C 269.774 357.706,270.271 357.342,270.404 357.127 C 270.791 356.501,270.367 356.671,269.365 357.544 M266.372 359.484 C 265.054 360.288,264.556 360.992,265.782 360.318 C 266.695 359.816,268.095 358.730,267.847 358.716 C 267.738 358.710,267.075 359.056,266.372 359.484 M262.058 362.129 C 260.713 362.926,259.684 363.650,259.771 363.737 C 259.932 363.898,264.700 361.066,264.700 360.809 C 264.700 360.573,264.585 360.631,262.058 362.129 M257.522 364.629 C 256.711 365.057,256.047 365.495,256.047 365.602 C 256.047 365.710,256.755 365.437,257.620 364.995 C 258.486 364.554,259.194 364.108,259.194 364.004 C 259.194 363.747,259.191 363.748,257.522 364.629 M146.313 366.962 C 147.070 367.376,147.866 367.715,148.083 367.715 C 148.299 367.715,147.856 367.376,147.099 366.962 C 146.342 366.547,145.546 366.208,145.329 366.208 C 145.113 366.208,145.556 366.547,146.313 366.962 M253.196 366.793 C 251.671 367.621,251.843 367.906,253.392 367.118 C 254.875 366.364,255.137 366.169,254.638 366.191 C 254.440 366.199,253.791 366.471,253.196 366.793 M148.673 367.934 C 148.673 368.246,151.524 369.354,151.748 369.130 C 151.859 369.019,151.854 368.928,151.736 368.928 C 151.618 368.928,150.881 368.660,150.097 368.333 C 149.314 368.006,148.673 367.826,148.673 367.934 M249.558 368.513 C 248.692 368.923,248.123 369.272,248.292 369.290 C 248.754 369.338,251.327 368.214,251.327 367.965 C 251.327 367.673,251.346 367.667,249.558 368.513 M153.982 370.260 C 154.631 370.556,155.605 370.906,156.146 371.039 C 156.935 371.233,156.897 371.174,155.949 370.743 C 155.300 370.447,154.326 370.097,153.786 369.964 C 152.996 369.770,153.035 369.829,153.982 370.260 M244.715 370.377 C 243.782 370.707,243.088 371.046,243.173 371.131 C 243.353 371.311,247.001 370.113,247.001 369.875 C 247.001 369.628,246.553 369.727,244.715 370.377 M158.352 371.861 C 159.025 372.171,160.087 372.526,160.712 372.649 C 161.685 372.841,161.650 372.795,160.472 372.333 C 158.348 371.501,156.847 371.166,158.352 371.861 M239.208 372.343 C 238.276 372.673,237.582 373.013,237.667 373.098 C 237.752 373.183,238.780 372.912,239.953 372.496 C 241.125 372.079,241.819 371.740,241.495 371.741 C 241.170 371.742,240.141 372.013,239.208 372.343 M164.995 373.988 C 165.428 374.178,166.401 374.445,167.158 374.582 C 168.103 374.754,168.288 374.724,167.748 374.488 C 167.316 374.298,166.342 374.031,165.585 373.894 C 164.640 373.722,164.455 373.752,164.995 373.988 M233.038 374.253 C 231.487 374.789,231.485 374.794,232.842 374.565 C 234.446 374.294,236.086 373.695,235.202 373.703 C 234.877 373.706,233.904 373.953,233.038 374.253 M170.772 375.404 C 171.087 375.745,176.665 376.858,176.897 376.626 C 176.983 376.540,176.022 376.263,174.761 376.009 C 173.500 375.756,172.026 375.450,171.485 375.330 C 170.944 375.209,170.623 375.242,170.772 375.404 M227.925 375.424 C 227.709 375.501,226.500 375.768,225.239 376.017 C 223.978 376.266,223.017 376.540,223.103 376.626 C 223.310 376.833,228.890 375.764,229.195 375.459 C 229.446 375.208,228.594 375.185,227.925 375.424 M181.514 377.571 C 182.380 377.756,184.680 378.002,186.627 378.117 C 189.157 378.268,189.606 378.237,188.201 378.010 C 185.224 377.528,179.576 377.158,181.514 377.571 M214.356 377.624 C 212.734 377.809,211.052 378.040,210.619 378.139 C 209.264 378.449,216.829 377.924,218.486 377.593 L 220.059 377.278 218.682 377.284 C 217.925 377.287,215.978 377.440,214.356 377.624 M192.822 378.654 C 193.633 378.739,194.961 378.739,195.772 378.654 C 196.583 378.569,195.919 378.500,194.297 378.500 C 192.675 378.500,192.011 378.569,192.822 378.654 M204.416 378.652 C 205.114 378.739,206.353 378.740,207.169 378.655 C 207.985 378.570,207.414 378.499,205.900 378.497 C 204.385 378.495,203.718 378.565,204.416 378.652 " stroke="none" fill="#bba38b" fill-rule="evenodd"></path></g></svg>