<?xml version="1.0" standalone="no"?>
<!DOCTYPE svg PUBLIC "-//W3C//DTD SVG 20010904//EN"
 "http://www.w3.org/TR/2001/REC-SVG-20010904/DTD/svg10.dtd">
<svg version="1.0" xmlns="http://www.w3.org/2000/svg"
 width="512.000000pt" height="512.000000pt" viewBox="0 0 512.000000 512.000000"
 preserveAspectRatio="xMidYMid meet">

<g transform="translate(0.000000,512.000000) scale(0.100000,-0.100000)"
fill="#fa3434" stroke="none">
<path d="M303 4159 c-114 -22 -220 -106 -269 -212 l-29 -62 0 -1325 0 -1325
29 -63 c37 -80 122 -161 203 -194 l58 -23 2225 -3 c1571 -2 2244 1 2291 8 119
20 218 96 273 210 l31 65 0 1325 0 1325 -31 65 c-53 112 -151 188 -268 209
-72 13 -4447 14 -4513 0z m4282 -225 c153 -39 270 -164 304 -322 15 -70 16
-2015 1 -2092 -34 -179 -176 -314 -355 -340 -96 -13 -3845 -13 -3940 0 -178
26 -322 164 -355 339 -15 79 -14 2023 1 2093 25 115 102 224 200 281 100 59
-21 56 2119 56 1746 1 1972 -1 2025 -15z"/>
<path d="M534 3829 c-71 -27 -137 -88 -171 -157 l-28 -57 0 -1050 0 -1050 26
-55 c33 -70 89 -126 159 -159 l55 -26 1990 0 1990 0 55 26 c70 33 126 89 159
159 l26 55 0 1050 0 1050 -28 57 c-34 70 -101 131 -173 158 -54 20 -68 20
-2032 19 -1945 0 -1978 0 -2028 -20z m928 -748 c65 -9 120 -20 123 -23 3 -2 2
-40 -2 -82 l-6 -78 -111 9 c-238 18 -313 7 -341 -48 -18 -34 -19 -50 -4 -82
15 -33 62 -57 203 -106 180 -62 240 -104 271 -190 20 -56 19 -163 -1 -232 -12
-42 -28 -66 -72 -109 -75 -74 -138 -95 -277 -94 -93 0 -288 28 -315 44 -13 8
-5 126 9 149 6 9 28 9 94 1 111 -14 265 -15 298 -2 44 17 69 59 69 112 0 41
-4 52 -30 73 -16 14 -80 42 -142 62 -247 81 -319 148 -321 305 -1 86 18 150
59 199 91 106 232 132 496 92z m882 -11 c108 -42 179 -130 213 -266 24 -96 24
-382 0 -471 -34 -129 -98 -213 -193 -255 -70 -30 -197 -43 -294 -30 -181 26
-272 109 -317 289 -24 94 -23 370 0 466 39 156 117 242 257 282 82 22 257 15
334 -15z m616 -405 l0 -415 188 -2 187 -3 3 -92 3 -93 -296 0 -295 0 0 510 0
510 105 0 105 0 0 -415z m1075 386 c160 -62 213 -199 202 -521 -9 -278 -62
-383 -222 -442 -54 -20 -84 -22 -307 -26 l-248 -4 0 512 0 512 258 -4 c240 -4
261 -5 317 -27z"/>
<path d="M2077 2906 c-52 -19 -63 -30 -94 -94 -26 -52 -28 -67 -31 -212 -8
-285 39 -371 201 -371 104 0 153 29 184 110 15 38 18 78 18 231 l0 185 -30 60
c-20 39 -41 66 -63 78 -42 25 -136 31 -185 13z"/>
<path d="M3670 2570 l0 -333 108 5 c130 5 172 22 208 83 51 88 56 414 7 498
-34 57 -74 72 -205 76 l-118 3 0 -332z"/>
</g>
</svg>
